<svg xmlns="http://www.w3.org/2000/svg" viewBox="0 0 64 64">
  <defs>
    <linearGradient id="orangeBg" x1="0%" y1="0%" x2="100%" y2="100%">
      <stop offset="0%" stop-color="#ff8c42" />
      <stop offset="100%" stop-color="#ff6b1a" />
    </linearGradient>
    <linearGradient id="rocketGrad" x1="0%" y1="0%" x2="0%" y2="100%">
      <stop offset="0%" stop-color="#e5e7eb" />
      <stop offset="100%" stop-color="#9ca3af" />
    </linearGradient>
  </defs>
  
  <!-- Orange background -->
  <rect width="64" height="64" rx="12" fill="url(#orangeBg)" />
  
  <!-- Rocket body -->
  <ellipse cx="32" cy="35" rx="6" ry="18" fill="url(#rocketGrad)" stroke="#6b7280" stroke-width="0.5"/>
  
  <!-- Rocket nose cone -->
  <path d="M32 17 L28 25 L36 25 Z" fill="#ef4444" stroke="#dc2626" stroke-width="0.5"/>
  
  <!-- Rocket fins -->
  <path d="M26 45 L24 52 L28 50 Z" fill="#6b7280" stroke="#4b5563" stroke-width="0.5"/>
  <path d="M38 45 L40 52 L36 50 Z" fill="#6b7280" stroke="#4b5563" stroke-width="0.5"/>
  
  <!-- Window/porthole -->
  <circle cx="32" cy="28" r="3" fill="#3b82f6" stroke="#1e40af" stroke-width="0.5"/>
  <circle cx="32" cy="28" r="2" fill="#60a5fa" opacity="0.8"/>
  
  <!-- Exhaust flames -->
  <ellipse cx="32" cy="55" rx="4" ry="3" fill="#ef4444" opacity="0.9"/>
  <ellipse cx="32" cy="57" rx="2.5" ry="2" fill="#fbbf24" opacity="0.8"/>
  
  <!-- Stars around rocket -->
  <circle cx="20" cy="22" r="1" fill="#fbbf24"/>
  <circle cx="45" cy="18" r="0.8" fill="#fbbf24"/>
  <circle cx="48" cy="35" r="1" fill="#fbbf24"/>
  <circle cx="18" cy="40" r="0.8" fill="#fbbf24"/>
  
  <!-- Small sparkles -->
  <path d="M15 30 L16 32 L15 34 L14 32 Z" fill="#fbbf24" opacity="0.7"/>
  <path d="M50 25 L51 27 L50 29 L49 27 Z" fill="#fbbf24" opacity="0.7"/>
</svg>
